<svg xmlns="http://www.w3.org/2000/svg" viewBox="0 0 24 24" width="200" height="200">
  <rect width="24" height="24" fill="#10b981" opacity="0.1"/>
  <g fill="#10b981">
    <circle cx="12" cy="12" r="3" stroke="#10b981" stroke-width="1" fill="none"/>
    <path d="M12,2 C14,4 16,6 18,8 C16,10 14,12 12,14 C10,12 8,10 6,8 C8,6 10,4 12,2 Z" fill="none" stroke="#10b981" stroke-width="1"/>
    <path d="M12,22 C10,20 8,18 6,16 C8,14 10,12 12,10 C14,12 16,14 18,16 C16,18 14,20 12,22 Z" fill="none" stroke="#10b981" stroke-width="1"/>
    <path d="M2,12 C4,14 6,16 8,18 C6,20 4,22 2,24 L0,22 C2,20 4,18 6,16 C4,14 2,12 2,12 Z" fill="none" stroke="#10b981" stroke-width="1"/>
    <path d="M22,12 C20,10 18,8 16,6 C18,4 20,2 22,0 L24,2 C22,4 20,6 18,8 C20,10 22,12 22,12 Z" fill="none" stroke="#10b981" stroke-width="1"/>
    <circle cx="12" cy="12" r="1" fill="#10b981"/>
  </g>
</svg>